<svg width="60" height="60" viewBox="0 0 60 60" fill="none" xmlns="http://www.w3.org/2000/svg">
<path d="M59.1 37.26C55.0955 53.3302 38.8141 63.111 22.7391 59.1005C6.66416 55.09 -3.11216 38.8167 0.898633 22.7451C4.90942 6.67341 21.1827 -3.11191 37.2541 0.89918C53.3254 4.91027 63.1107 21.1844 59.1 37.26Z" fill="white"/>
<path d="M58.6148 37.139L58.6148 37.1391C54.6771 52.9412 38.6673 62.559 22.8602 58.6154C7.05305 54.6717 -2.56015 38.6698 1.38376 22.8661C5.32776 7.06209 21.3299 -2.55984 37.133 1.3843C52.9367 5.32859 62.5587 21.3316 58.6148 37.139Z" stroke="black" stroke-opacity="0.2"/>
<path fill-rule="evenodd" clip-rule="evenodd" d="M28.9402 9.03256C27.347 9.11056 25.8226 9.36717 24.1117 9.84534C23.0131 10.1524 21.8081 10.6206 20.676 11.1802C20.2368 11.3973 19.6685 11.6969 19.4132 11.846C18.9989 12.0879 18.251 12.572 17.6631 12.9787C17.2794 13.2441 16.5369 13.8406 15.9032 14.3923C15.6488 14.6138 14.462 15.8059 14.2249 16.0781C13.7436 16.6305 13.3589 17.0998 13.3589 17.1343C13.3589 17.1577 17.3086 17.167 24.6038 17.1608L35.8487 17.1512L36.1036 17.0495C36.6298 16.8397 36.9984 16.5294 38.0237 15.4335C38.6871 14.7244 38.9461 14.5635 39.4144 14.5697C39.537 14.5713 39.7023 14.6004 39.7818 14.6343C39.9711 14.715 40.2738 14.9413 40.4325 15.1209C41.4449 16.2654 41.8399 16.6709 42.1282 16.8616C42.2327 16.9307 42.4086 17.0235 42.5192 17.0678C42.715 17.1463 42.7699 17.1487 44.6794 17.1621C46.0319 17.1716 46.6387 17.1638 46.6387 17.137C46.6387 17.0998 46.2514 16.6267 45.772 16.0781C45.6475 15.9357 45.3026 15.5721 45.0057 15.2702C44.2801 14.5325 43.0285 13.4589 42.3344 12.9787C41.7449 12.5709 40.999 12.0882 40.5897 11.8497C39.2464 11.0671 37.4821 10.3051 36.0752 9.89992C34.2367 9.37046 32.7564 9.11941 30.9459 9.03001C30.1231 8.98938 29.8143 8.98979 28.9402 9.03256ZM33.9916 20.2563C33.9099 20.2824 33.7762 20.3421 33.6945 20.3891C33.4838 20.5101 33.0539 20.9341 32.6819 21.3879C32.2783 21.8802 31.9196 22.2363 31.6617 22.4006C31.4184 22.5557 31.0972 22.6892 30.7541 22.7778C30.5142 22.8397 29.9403 22.8435 20.3497 22.8464C11.3895 22.8491 10.1951 22.8559 10.1648 22.9047C10.104 23.0028 9.86696 23.7473 9.68191 24.4216C9.45571 25.246 9.23743 26.2786 9.12284 27.0667C9.05082 27.5618 8.98467 28.213 9.00313 28.2449C9.01275 28.2614 13.3604 28.2715 18.6647 28.2671C26.471 28.2607 28.3452 28.25 28.4996 28.2108C28.8369 28.1251 29.0051 27.9796 29.9451 26.9595C30.6251 26.2217 30.8251 26.025 31.056 25.8665C31.4837 25.5732 31.8579 25.5412 32.2745 25.7624C32.5078 25.8863 32.8603 26.2348 33.473 26.9474C33.6699 27.1763 33.912 27.4571 34.0111 27.5713C34.2144 27.8056 34.5264 28.0262 34.7911 28.1225C34.8892 28.1583 35.0754 28.2055 35.2048 28.2275C35.3686 28.2554 37.8027 28.267 43.212 28.2657C47.4865 28.2647 50.9902 28.2529 50.9979 28.2393C51.0135 28.212 50.9411 27.5232 50.8747 27.0667C50.7601 26.2786 50.5419 25.246 50.3157 24.4216C50.1305 23.7468 49.8935 23.0026 49.8327 22.9047C49.8025 22.8561 49.0847 22.8494 43.845 22.8492C38.3342 22.849 37.8744 22.8443 37.6604 22.7855C37.1549 22.6466 36.8037 22.3968 36.3667 21.865C36.0935 21.5327 35.5341 20.9109 35.312 20.6928C35.0764 20.4614 34.8744 20.3316 34.6431 20.2632C34.406 20.1931 34.1963 20.1908 33.9916 20.2563ZM26.302 31.3341C26.1355 31.3915 25.6929 31.6913 25.6336 31.7869C25.6211 31.8071 25.5927 31.8124 25.5705 31.7988C25.5472 31.7845 25.5408 31.7911 25.5553 31.8144C25.5691 31.8367 25.4833 31.96 25.3645 32.0884C25.2458 32.2168 25.0296 32.4718 24.884 32.6549C24.5893 33.0256 24.4234 33.1902 24.1488 33.3842C23.7862 33.6403 23.3356 33.8215 22.869 33.8988C22.6992 33.9269 20.6187 33.9371 15.9682 33.9329C9.33923 33.9267 9.31037 33.927 9.31037 34.0005C9.31037 34.1017 9.50478 34.9537 9.66613 35.5596C9.83368 36.1887 10.1501 37.1282 10.4133 37.7781C10.6647 38.3988 10.6817 38.4375 10.9381 38.9755L11.1464 39.4127L15.8833 39.3991C20.5862 39.3855 20.6217 39.3849 20.8141 39.3081C20.9208 39.2655 21.0899 39.1708 21.19 39.0976C21.2901 39.0244 21.6065 38.7104 21.893 38.3998C22.8759 37.3346 23.2019 37.0195 23.4475 36.8974C23.8877 36.6787 24.2672 36.7061 24.6463 36.9841C24.7651 37.0713 25.1019 37.415 25.3946 37.7479C25.6873 38.0808 25.9697 38.3968 26.0221 38.4501C26.2197 38.6512 26.74 39.0416 26.9536 39.149C27.4287 39.3879 26.5559 39.3707 38.2358 39.3707H48.8714L49.0904 38.9175C49.53 38.0076 50.0597 36.5736 50.3309 35.5596C50.4897 34.9655 50.6872 34.1031 50.6872 34.0033C50.6872 33.9336 50.5102 33.9322 40.2966 33.9222C30.4062 33.9125 29.898 33.9088 29.7415 33.8457C29.5815 33.7811 29.3535 33.6239 29.1976 33.4706C29.1553 33.429 28.8865 33.1285 28.6003 32.8029C28.314 32.4773 27.9501 32.0805 27.7915 31.9211C27.4814 31.6093 27.135 31.3644 26.9199 31.3048C26.7251 31.2509 26.5146 31.2609 26.302 31.3341ZM17.9304 41.9454C17.5594 42.0799 17.2301 42.3652 16.61 43.0894C15.9678 43.8394 15.58 44.1658 15.0425 44.4086C14.9133 44.467 14.8075 44.5273 14.8075 44.5427C14.8075 44.558 15.0122 44.7718 15.2625 45.0176C15.8019 45.5476 16.9213 46.5133 17.296 46.7719C17.3675 46.8212 17.4427 46.8751 17.4632 46.8918C17.6177 47.0172 18.6655 47.7331 18.6946 47.7331C18.7052 47.7331 18.7835 47.7814 18.8685 47.8403C19.1699 48.0492 19.9239 48.4689 20.6203 48.8154C21.3891 49.1979 22.4931 49.6523 23.3688 49.9467C24.822 50.4353 26.727 50.8164 28.4202 50.9574C29.1055 51.0144 30.8764 51.0142 31.5773 50.9569C33.2579 50.8197 35.115 50.4489 36.6135 49.9513C37.5114 49.6531 38.6048 49.2014 39.4144 48.794C40.1273 48.4354 41.0959 47.8937 41.2188 47.785C41.251 47.7565 41.2875 47.7331 41.2997 47.7331C41.312 47.7331 41.5446 47.5807 41.8168 47.3943C42.4678 46.9484 42.531 46.9043 42.553 46.8803C42.5632 46.8691 42.63 46.82 42.7015 46.7711C42.8666 46.6582 43.0773 46.4874 43.7037 45.9589C44.296 45.4592 45.1444 44.6412 45.108 44.6049C45.0784 44.5754 29.6935 44.5612 25.5045 44.5869C22.8914 44.6029 22.6348 44.5991 22.3103 44.5384C21.8533 44.4531 21.6158 44.3838 21.2589 44.2316C20.6642 43.9781 20.0879 43.5031 19.5362 42.8119C19.1805 42.3663 18.936 42.1317 18.7067 42.016C18.4574 41.8901 18.158 41.8629 17.9304 41.9454Z" fill="black"/>
</svg>
