<svg width="60" height="60" viewBox="0 0 60 60" fill="none" xmlns="http://www.w3.org/2000/svg">
<path d="M36.481 27.4915L40.8875 20.0148L52.7642 38.5135L52.7698 42.0634L52.7311 17.6344C52.703 17.0373 52.3859 16.491 51.88 16.1688L30.4973 3.86919C29.9971 3.62341 29.3628 3.62602 28.8636 3.87683C28.7962 3.91072 28.7327 3.9474 28.6721 3.98743L28.5977 4.03435L7.84228 16.062L7.76166 16.0985C7.65813 16.1461 7.55349 16.2066 7.45517 16.277C7.06173 16.5593 6.80031 16.9766 6.71577 17.4447C6.70311 17.5156 6.6938 17.5879 6.68933 17.6607L6.72192 37.5679L17.7846 20.4213C19.1774 18.1476 22.2121 17.4153 25.0291 17.4551L28.3355 17.5424L8.85447 48.7845L11.1509 50.1067L30.8654 17.5741L39.5792 17.5424L19.9155 50.896L28.1098 55.6091L29.0889 56.1721C29.503 56.3405 29.9912 56.3488 30.4088 56.1982L52.0921 43.6325L47.9465 46.0346L36.481 27.4915ZM38.1622 51.7048L29.8858 38.7151L34.938 30.1421L45.8074 47.2742L38.1622 51.7048Z" fill="#2D374B"/>
<path d="M29.8859 38.7151L38.1623 51.7048L45.8077 47.2742L34.9382 30.1421L29.8859 38.7151Z" fill="#28A0F0"/>
<path d="M52.7699 42.0632L52.7643 38.5133L40.8875 20.0146L36.4811 27.4913L47.9466 46.0345L52.0921 43.6323C52.4988 43.3022 52.7447 42.8175 52.7706 42.2945L52.7699 42.0632Z" fill="#28A0F0"/>
<path d="M3.00019 45.4113L8.85433 48.7845L28.3354 17.5425L25.029 17.4551C22.212 17.4153 19.1775 18.1476 17.7845 20.4213L6.72177 37.5679L3 43.2864V45.4113H3.00019Z" fill="white"/>
<path d="M39.579 17.5425L30.8654 17.5741L11.1509 50.1067L18.0416 54.0743L19.9155 50.896L39.579 17.5425Z" fill="white"/>
<path d="M56.4419 17.4975C56.3691 15.6752 55.3824 14.0068 53.8367 13.0356L32.1738 0.577873C30.6449 -0.192065 28.7349 -0.192997 27.2036 0.577314C27.0226 0.668552 6.13667 12.7816 6.13667 12.7816C5.84768 12.9202 5.56931 13.0853 5.30733 13.2726C3.92758 14.2616 3.08652 15.7981 3.00012 17.4864V43.2865L6.72189 37.5681L6.68931 17.6608C6.69378 17.588 6.7029 17.5165 6.71575 17.4458C6.79973 16.9773 7.06134 16.5595 7.45515 16.2772C7.55347 16.2068 28.796 3.91086 28.8635 3.87697C29.3629 3.62616 29.9973 3.62355 30.4973 3.86934L51.88 16.169C52.3859 16.4911 52.703 17.0374 52.7311 17.6346V42.2948C52.7052 42.8178 52.4985 43.3023 52.0919 43.6326L47.9463 46.0348L45.8074 47.2743L38.162 51.705L30.4086 56.1983C29.991 56.3492 29.5028 56.3408 29.0887 56.1723L19.9153 50.8961L18.0414 54.0742L26.2852 58.8206C26.5578 58.9755 26.8008 59.1129 27 59.225C27.3088 59.3982 27.519 59.5138 27.5933 59.5498C28.1793 59.8343 29.0222 60 29.7819 60C30.4785 60 31.1575 59.8721 31.8003 59.6203L54.3203 46.5783C55.6129 45.5769 56.3733 44.0666 56.4419 42.4305V17.4975Z" fill="#96BEDC"/>
</svg>
