<svg width="60" height="60" viewBox="0 0 60 60" fill="none" xmlns="http://www.w3.org/2000/svg">
<g clip-path="url(#clip0_14013_9082)">
<path d="M30.0002 60C46.5688 60 60.0002 46.5685 60.0002 30C60.0002 13.4315 46.5688 0 30.0002 0C13.4317 0 0.000244141 13.4315 0.000244141 30C0.000244141 46.5685 13.4317 60 30.0002 60Z" fill="#E84142"/>
<path d="M40.5828 30.7796C41.6221 28.9843 43.2993 28.9843 44.3387 30.7796L50.8111 42.1418C51.8505 43.937 51.0001 45.4016 48.9214 45.4016H35.882C33.8269 45.4016 32.9765 43.937 33.9922 42.1418L40.5828 30.7796ZM28.0631 8.90554C29.1025 7.11026 30.756 7.11026 31.7954 8.90554L33.2363 11.504L36.6379 17.4803C37.4647 19.1811 37.4647 21.189 36.6379 22.8898L25.2284 42.6614C24.1891 44.2677 22.4647 45.2835 20.5513 45.4016H11.0788C9.0001 45.4016 8.14971 43.9607 9.18908 42.1418L28.0631 8.90554Z" fill="white"/>
</g>
<defs>
<clipPath id="clip0_14013_9082">
<rect width="60" height="60" fill="white" transform="translate(0.000244141)"/>
</clipPath>
</defs>
</svg>
