<svg width="32" height="32" viewBox="0 0 32 32" fill="none" xmlns="http://www.w3.org/2000/svg">
<path d="M31.5206 19.8721C29.3849 28.4429 20.7015 33.6593 12.1281 31.5204C3.55476 29.3815 -1.6593 20.7024 0.479794 12.1308C2.61889 3.55917 11.298 -1.65969 19.8694 0.479565C28.4409 2.61882 33.6597 11.2984 31.5206 19.8721Z" fill="white"/>
<path d="M31.0355 19.7511L31.0355 19.7512C28.9665 28.0539 20.5546 33.1074 12.2491 31.0353C3.94364 28.9632 -1.10729 20.5554 0.964916 12.2518C3.03723 3.94784 11.4452 -1.10763 19.7484 0.964684C28.0521 3.03714 33.1077 11.4455 31.0355 19.7511Z" stroke="black" stroke-opacity="0.2"/>
<path d="M5.33334 16L7.46668 13.8667L9.60002 16L7.46668 18.1334L5.33334 16Z" fill="#FE9800"/>
<path d="M13.8667 16L16 13.8667L18.1333 16L16 18.1334L13.8667 16Z" fill="#FE9800"/>
<path d="M9.60001 20.2667L11.7333 18.1334L13.8667 20.2667L11.7333 22.4L9.60001 20.2667Z" fill="#FE9800"/>
<path d="M11.7333 22.4L13.8667 20.2667L16.0002 22.4002L13.8668 24.5335L11.7333 22.4Z" fill="#FE9800"/>
<path d="M13.8668 24.5335L16.0002 22.4002L18.1333 24.5334L16 26.6667L13.8668 24.5335Z" fill="#FE9800"/>
<path d="M16.0002 22.4002L18.1335 20.2669L20.2668 22.4002L18.1333 24.5334L16.0002 22.4002Z" fill="#FE9800"/>
<path d="M18.1335 20.2669L20.2667 18.1334L22.4 20.2667L20.2668 22.4002L18.1335 20.2669Z" fill="#FE9800"/>
<path d="M22.4 11.7334L20.2667 13.8667L18.1333 11.7334L20.2667 9.60004L22.4 11.7334Z" fill="#FE9800"/>
<path d="M20.2667 9.60004L18.1333 11.7334L16.0002 9.60004L18.1335 7.46671L20.2667 9.60004Z" fill="#FE9800"/>
<path d="M18.1335 7.46671L16.0002 9.60004L13.8667 7.46671L16 5.33337L18.1335 7.46671Z" fill="#FE9800"/>
<path d="M16.0002 9.60004L13.8668 11.7334L11.7335 9.60004L13.8667 7.46671L16.0002 9.60004Z" fill="#FE9800"/>
<path d="M13.8668 11.7334L11.7333 13.8667L9.6 11.7334L11.7335 9.60004L13.8668 11.7334Z" fill="#FE9800"/>
<path d="M22.4 16L24.5333 13.8667L26.6667 16L24.5333 18.1334L22.4 16Z" fill="#FE9800"/>
</svg>
