<svg width="110" height="24" viewBox="0 0 110 24" fill="none" xmlns="http://www.w3.org/2000/svg">
<path d="M22.6379 3.68004L22.7846 4.45126C22.8946 5.15542 22.9495 5.87634 22.9312 6.59726C22.9312 8.18999 22.7296 9.76596 22.308 11.3084C21.7581 13.4041 20.7682 15.3825 19.4301 17.1596C17.8904 19.1882 15.6541 21.2001 12.3913 22.8096L11.988 23.0108L11.5848 22.8096C8.32196 21.2001 6.08566 19.205 4.54592 17.1596C3.2078 15.3825 2.2363 13.4041 1.66806 11.3084C1.24646 9.76596 1.04483 8.18999 1.04483 6.59726C1.04483 5.87634 1.08149 5.15542 1.19147 4.45126L1.33811 3.68004C1.35644 3.61298 1.35644 3.54591 1.33811 3.49562C1.31978 3.42855 1.30145 3.37826 1.24646 3.32796C1.2098 3.27766 1.15481 3.22737 1.09982 3.19384C1.04483 3.16031 0.971506 3.14354 0.916515 3.12678C0.861524 3.11001 0.769873 3.12678 0.714882 3.12678C0.659891 3.12678 0.58657 3.16031 0.531579 3.2106C0.476588 3.24413 0.421597 3.29443 0.384936 3.34473C0.348276 3.39502 0.329946 3.46209 0.311615 3.52915L0.164973 4.30037C0.0549912 5.05482 0 5.82604 0 6.59726C0 8.25706 0.219964 9.91686 0.659891 11.5264C1.24646 13.7394 2.27296 15.8184 3.68439 17.6961C5.31579 19.8421 7.6804 21.9546 11.0898 23.6311L11.7314 23.9497C11.8047 23.9832 11.8964 24 11.988 24C12.0797 24 12.153 23.9832 12.2446 23.9497L12.8862 23.6311C16.2956 21.9546 18.6603 19.8421 20.2916 17.6961C21.7031 15.8351 22.7296 13.7394 23.3161 11.5431C23.7561 9.93362 23.976 8.27382 23.976 6.61403C23.976 5.84281 23.921 5.07159 23.8111 4.31714L23.6644 3.54592C23.6461 3.47885 23.6278 3.42856 23.5911 3.36149C23.5544 3.3112 23.4995 3.2609 23.4445 3.22737C23.3895 3.19384 23.3161 3.16031 23.2612 3.14354C23.1878 3.12678 23.1328 3.12678 23.0595 3.14354C22.9862 3.16031 22.9312 3.17707 22.8762 3.2106C22.8212 3.24413 22.7662 3.29443 22.7296 3.34473C22.6929 3.39502 22.6563 3.46209 22.6379 3.51238C22.6379 3.54591 22.6379 3.61298 22.6379 3.68004Z" fill="black"/>
<path d="M4.21604 3.16032L12.0064 0.980789L19.9618 3.21062C20.0901 3.24415 20.2367 3.22738 20.365 3.17709C20.4934 3.11002 20.585 3.00943 20.6217 2.89207C20.6583 2.77471 20.64 2.64059 20.585 2.52323C20.53 2.40587 20.4017 2.32204 20.2734 2.28851L12.1714 0.0251485C12.0797 -0.00838282 11.9698 -0.00838282 11.8598 0.0251485L3.92276 2.23821C3.84944 2.25497 3.79445 2.28851 3.73946 2.32204C3.68446 2.35557 3.6478 2.40587 3.61114 2.47293C3.57448 2.52323 3.55615 2.59029 3.55615 2.65735C3.55615 2.72441 3.55615 2.79148 3.57448 2.84177C3.59281 2.90884 3.62947 2.95913 3.66613 3.00943C3.70279 3.05973 3.75779 3.09326 3.83111 3.12679C3.8861 3.16032 3.95942 3.17709 4.03274 3.17709C4.08773 3.17709 4.16105 3.17708 4.21604 3.16032Z" fill="black"/>
<path d="M0.385093 3.81413L11.5299 23.7317C11.5666 23.8155 11.6399 23.8826 11.7132 23.9161C11.7865 23.9664 11.8965 23.9832 11.9882 23.9832C12.0798 23.9832 12.1715 23.9664 12.2631 23.9161C12.3365 23.8658 12.4098 23.7988 12.4648 23.7317L19.2653 12.0964L19.2836 12.0796L23.6463 3.79736C23.7012 3.68 23.7196 3.54588 23.6646 3.42852C23.6096 3.31116 23.5179 3.21056 23.3896 3.16027C23.2613 3.10997 23.1147 3.09321 22.9864 3.14351C22.858 3.17704 22.7481 3.27763 22.6931 3.37822L18.3488 11.6604L12.0248 22.491L1.31994 3.37822C1.28328 3.32793 1.24662 3.27763 1.19163 3.22733C1.13664 3.1938 1.08164 3.16027 1.00832 3.12674C0.935002 3.10997 0.880012 3.09321 0.80669 3.10997C0.733369 3.10997 0.678378 3.12674 0.605057 3.16027C0.550066 3.1938 0.495075 3.22733 0.440084 3.27763C0.403424 3.32792 0.366763 3.37822 0.348433 3.44528C0.330102 3.51235 0.311772 3.56264 0.330102 3.62971C0.330102 3.69677 0.348433 3.76383 0.385093 3.81413Z" fill="black"/>
<path d="M5.71906 12.6831H18.1287C18.2753 12.6831 18.4036 12.6328 18.4953 12.549C18.5869 12.4652 18.6419 12.3311 18.6419 12.2137C18.6419 12.0796 18.5869 11.9622 18.4953 11.8784C18.4036 11.7946 18.257 11.7443 18.1287 11.7443H5.71906C5.57242 11.7443 5.4441 11.7946 5.35245 11.8784C5.2608 11.9622 5.20581 12.0963 5.20581 12.2137C5.20581 12.3478 5.2608 12.4652 5.35245 12.549C5.4441 12.6328 5.57242 12.6831 5.71906 12.6831ZM40.3267 8.55879H32.2613C32.1147 8.55879 31.9864 8.60908 31.8947 8.69291C31.8031 8.77674 31.7481 8.91087 31.7481 9.02822V14.9465C31.7481 15.0806 31.8031 15.198 31.8947 15.2818C31.9864 15.3656 32.133 15.4159 32.2613 15.4159H40.3267V16.4219H32.2613C32.0414 16.4219 31.8397 16.3883 31.6381 16.3045C31.4365 16.2375 31.2532 16.1201 31.1065 15.986C30.9599 15.8518 30.8316 15.6842 30.7583 15.4998C30.6849 15.3153 30.6299 15.1309 30.6299 14.9297V9.01146C30.6299 8.81028 30.6666 8.62585 30.7583 8.44143C30.8316 8.25701 30.9599 8.08935 31.1065 7.95523C31.2532 7.8211 31.4365 7.70374 31.6381 7.63668C31.8397 7.56962 32.0414 7.51932 32.2613 7.51932H40.3267V8.55879ZM55.4858 7.55285V8.55879H47.7138V11.4928H53.9644V12.4987H47.7138V15.4327H55.4858V16.4386H46.614V7.55285H55.4858Z" fill="black"/>
<path d="M71.4881 9.04506V11.6605C71.4881 11.8617 71.4514 12.0461 71.3598 12.2305C71.2864 12.415 71.1581 12.5826 71.0115 12.7167C70.8648 12.8509 70.6815 12.9682 70.4799 13.0353C70.2783 13.1024 70.0766 13.1526 69.8567 13.1526H68.3719L71.4147 16.4555H69.9667L66.9238 13.1526H63.3494C63.1661 13.1526 63.0011 13.1359 62.8178 13.1023V16.4555H61.718V7.58646H69.875C70.095 7.58646 70.2966 7.61998 70.4982 7.70381C70.6999 7.77088 70.8832 7.88823 71.0298 8.02236C71.1765 8.15648 71.3048 8.32414 71.3781 8.50857C71.4514 8.65946 71.4881 8.86064 71.4881 9.04506ZM63.4044 12.1299H69.875C69.9483 12.1299 70.0033 12.1132 70.0766 12.0964C70.1316 12.0796 70.2049 12.0461 70.2416 11.9958C70.2966 11.9455 70.3333 11.8952 70.3516 11.8449C70.3699 11.7946 70.3882 11.7276 70.3882 11.6605V9.06183C70.3882 8.99477 70.3699 8.94447 70.3516 8.87741C70.3333 8.82711 70.2966 8.76005 70.2416 8.72652C70.1866 8.67622 70.1316 8.64269 70.0766 8.62592C70.0216 8.60916 69.9483 8.59239 69.875 8.59239H63.4044C63.2578 8.59239 63.1295 8.64269 63.0378 8.72652C62.9462 8.81035 62.8912 8.94447 62.8912 9.06183V11.6605C62.8912 11.7276 62.9095 11.7779 62.9278 11.8449C62.9461 11.8952 63.0011 11.9623 63.0378 11.9958C63.0928 12.0461 63.1478 12.0796 63.2028 12.0964C63.2578 12.1132 63.3311 12.1299 63.4044 12.1299Z" fill="black"/>
<path d="M77.2988 7.55289H87.0139V8.55883H82.7063V16.4554H81.6065V8.55883H77.2805V7.55289H77.2988ZM92.8979 16.4387V7.55289H93.9978V16.4387H92.8979ZM108.589 7.55289H110L105.931 11.9958L110 16.4387H108.589L104.978 12.4987H101.843V16.4387H100.743V7.55289H101.843V11.4928H104.978L108.589 7.55289Z" fill="black"/>
</svg>
