<svg width="16" height="16" viewBox="0 0 16 16" fill="none" xmlns="http://www.w3.org/2000/svg">
<path d="M13.8315 5.10541C13.6717 4.17279 12.6172 3.27589 11.6366 3.17187C9.21234 2.94271 6.78769 2.94271 4.36342 3.17187C3.3828 3.27589 2.32874 4.173 2.16857 5.10541C1.94381 6.53758 1.94381 8.07954 2.16857 9.51172C2.32874 10.4443 3.3828 11.341 4.36342 11.4452C4.7104 11.4781 5.05742 11.4957 5.40439 11.519V13.5916C5.40439 13.9533 5.86967 14.137 6.14135 13.8802L8.71189 11.5445C9.68707 11.5266 10.6618 11.4815 11.6366 11.3894C12.6172 11.2852 13.6717 10.4443 13.8315 9.51172C14.0562 8.07954 14.0562 6.53758 13.8315 5.10541Z" stroke="black"/>
</svg>
