<svg width="60" height="60" viewBox="0 0 60 60" fill="none" xmlns="http://www.w3.org/2000/svg">
<g clip-path="url(#clip0_14013_9083)">
<path d="M30.0002 60C46.5688 60 60.0002 46.5685 60.0002 30C60.0002 13.4315 46.5688 0 30.0002 0C13.4317 0 0.000244141 13.4315 0.000244141 30C0.000244141 46.5685 13.4317 60 30.0002 60Z" fill="#2E3148"/>
<path d="M30.0002 47.4073C39.614 47.4073 47.4076 39.6138 47.4076 29.9999C47.4076 20.3861 39.614 12.5925 30.0002 12.5925C20.3863 12.5925 12.5928 20.3861 12.5928 29.9999C12.5928 39.6138 20.3863 47.4073 30.0002 47.4073Z" fill="#1B1E36"/>
<path d="M30.0619 3.82739C26.8236 3.82739 24.1978 15.573 24.1978 30.062C24.1978 44.5511 26.8236 56.2967 30.0619 56.2967C33.3002 56.2967 35.9261 44.5511 35.9261 30.062C35.9261 15.573 33.3002 3.82739 30.0619 3.82739ZM30.4668 54.8161C30.0965 55.3101 29.7262 54.9395 29.7262 54.9395C28.2348 53.2115 27.4891 50.0012 27.4891 50.0012C24.8806 41.6063 25.5014 23.5816 25.5014 23.5816C26.7274 9.27179 28.9574 5.89139 29.7163 5.14091C29.7938 5.06432 29.8958 5.01751 30.0045 5.00873C30.1131 4.99995 30.2213 5.02976 30.3101 5.09291C31.4112 5.87315 32.3347 9.1362 32.3347 9.1362C35.0618 19.2596 34.8149 28.7658 34.8149 28.7658C35.0618 37.0374 33.4483 46.2966 33.4483 46.2966C32.2063 53.3334 30.4668 54.8161 30.4668 54.8161Z" fill="#6F7390"/>
<path d="M52.8175 17.0062C51.2052 14.1963 39.7114 17.7641 27.1375 24.9742C14.5637 32.1843 5.69422 40.3075 7.30534 43.1163C8.91646 45.925 20.4115 42.3583 32.9854 35.1483C45.5592 27.9382 54.4287 19.8149 52.8175 17.0062ZM8.79286 42.7308C8.17558 42.6531 8.31502 42.1457 8.31502 42.1457C9.07223 39.9927 11.4818 37.7482 11.4818 37.7482C17.4682 31.3075 33.4128 22.8766 33.4128 22.8766C46.4338 16.8185 50.4783 17.0741 51.5043 17.3566C51.6096 17.386 51.7011 17.4517 51.7626 17.5421C51.8241 17.6325 51.8516 17.7417 51.8403 17.8505C51.7169 19.1945 49.3402 21.6185 49.3402 21.6185C41.9213 29.0247 33.5522 33.5419 33.5522 33.5419C26.5003 37.8739 17.6659 41.0801 17.6659 41.0801C10.9437 43.5024 8.7931 42.7308 8.7931 42.7308H8.79286Z" fill="#6F7390"/>
<path d="M52.7605 43.2098C54.3853 40.4073 45.5382 32.2469 33.0086 24.9826C20.4789 17.7183 8.98657 14.1063 7.36322 16.9136C5.73986 19.7209 14.5855 27.8765 27.1223 35.1408C39.6592 42.4051 51.1371 46.0173 52.7605 43.2098ZM8.43985 17.9965C8.19985 17.4275 8.70649 17.2904 8.70649 17.2904C10.9495 16.8668 14.1002 17.8321 14.1002 17.8321C22.6718 19.784 37.9561 29.358 37.9561 29.358C49.724 37.5926 51.5288 41.2197 51.7993 42.2493C51.8268 42.3549 51.8161 42.4668 51.7691 42.5653C51.7221 42.6638 51.6419 42.7426 51.5425 42.7876C50.3154 43.3495 47.0288 42.5124 47.0288 42.5124C36.8992 39.7963 28.798 34.8199 28.798 34.8199C21.5191 30.894 14.3215 24.8533 14.3215 24.8533C8.85241 20.2484 8.44153 18.0027 8.44153 18.0027L8.43985 17.9965Z" fill="#6F7390"/>
<path d="M30.0002 33.0864C31.7048 33.0864 33.0866 31.7045 33.0866 30C33.0866 28.2954 31.7048 26.9136 30.0002 26.9136C28.2956 26.9136 26.9138 28.2954 26.9138 30C26.9138 31.7045 28.2956 33.0864 30.0002 33.0864Z" fill="#B7B9C8"/>
<path d="M42.6545 19.9998C43.6432 19.9998 44.4446 19.1707 44.4446 18.148C44.4446 17.1252 43.6432 16.2961 42.6545 16.2961C41.6658 16.2961 40.8643 17.1252 40.8643 18.148C40.8643 19.1707 41.6658 19.9998 42.6545 19.9998Z" fill="#B7B9C8"/>
<path d="M13.2718 26.2962C14.2605 26.2962 15.0619 25.4671 15.0619 24.4444C15.0619 23.4216 14.2605 22.5925 13.2718 22.5925C12.2831 22.5925 11.4816 23.4216 11.4816 24.4444C11.4816 25.4671 12.2831 26.2962 13.2718 26.2962Z" fill="#B7B9C8"/>
<path d="M26.3582 49.0123C27.3469 49.0123 28.1484 48.1832 28.1484 47.1604C28.1484 46.1377 27.3469 45.3086 26.3582 45.3086C25.3695 45.3086 24.568 46.1377 24.568 47.1604C24.568 48.1832 25.3695 49.0123 26.3582 49.0123Z" fill="#B7B9C8"/>
</g>
<defs>
<clipPath id="clip0_14013_9083">
<rect width="60" height="60" fill="white" transform="translate(0.000244141)"/>
</clipPath>
</defs>
</svg>
