<svg width="142" height="24" viewBox="0 0 142 24" fill="none" xmlns="http://www.w3.org/2000/svg">
<path d="M58.6124 7.17697L36.8031 9.45061H23.1437L1.3245 7.17692C0.986008 7.14165 0.801136 7.55661 1.05596 7.77968L5.90521 12.0248C6.35295 12.4168 6.93031 12.6331 7.52835 12.6331H21.9385L10.7575 13.9194C10.4101 13.9594 10.3305 14.4229 10.6451 14.5739L17.5092 17.8688C17.6073 17.9159 17.722 17.9151 17.8193 17.8666L21.9385 15.8157L18.9344 17.9913C18.7218 18.1453 18.7513 18.4675 18.9884 18.5813L23.0893 20.5496C23.2313 20.6177 23.4018 20.5834 23.5056 20.4659L25.1525 18.6004L24.2588 20.7517C24.1886 20.9206 24.2633 21.1142 24.4294 21.194L29.8204 23.7853C29.917 23.8317 30.0298 23.8317 30.1264 23.7852L35.5124 21.1944C35.6781 21.1147 35.7528 20.9215 35.6832 20.7528L34.7943 18.6004L36.6046 20.4085C36.71 20.5137 36.8714 20.5409 37.006 20.4763L40.9501 18.5824C41.1869 18.4687 41.2166 18.1469 41.0045 17.9928L38.0083 15.8157L42.1352 17.8668C42.2326 17.9152 42.3472 17.9159 42.4452 17.8688L49.3021 14.574C49.6166 14.4229 49.537 13.9595 49.1897 13.9195L38.0083 12.6331H52.4086C53.0067 12.6331 53.584 12.4168 54.0318 12.0248L58.881 7.77974C59.1358 7.55666 58.9509 7.14169 58.6124 7.17697Z" fill="black"/>
<path fill-rule="evenodd" clip-rule="evenodd" d="M17.6453 2.83638C17.5131 2.97854 17.4766 3.08936 17.4766 3.17194C17.4766 3.27549 17.536 3.42738 17.7675 3.62313C17.9968 3.81694 18.354 4.01703 18.8419 4.21212C19.8146 4.60106 21.2285 4.93957 22.9566 5.19049L22.855 5.87473C21.1015 5.62013 19.6259 5.27161 18.5796 4.85325C18.058 4.64468 17.6232 4.41106 17.3129 4.14873C17.0049 3.88835 16.7771 3.56169 16.7771 3.17194C16.7771 2.8643 16.9203 2.59415 17.1303 2.36835C17.3385 2.14443 17.6288 1.94505 17.9732 1.76587C18.6626 1.40715 19.6373 1.09459 20.8122 0.836021C23.1678 0.317634 26.405 0 29.969 0C33.533 0 36.7702 0.317634 39.1257 0.836021C40.3007 1.09459 41.2754 1.40715 41.9648 1.76587C42.3092 1.94505 42.5995 2.14443 42.8077 2.36835C43.0177 2.59415 43.1609 2.8643 43.1609 3.17194C43.1609 3.56169 42.9331 3.88835 42.6251 4.14873C42.3148 4.41106 41.88 4.64468 41.3584 4.85325C40.3121 5.27161 38.8365 5.62013 37.083 5.87473L36.9813 5.19049C38.7095 4.93957 40.1234 4.60106 41.0961 4.21212C41.584 4.01703 41.9412 3.81694 42.1704 3.62313C42.402 3.42738 42.4614 3.27549 42.4614 3.17194C42.4614 3.08936 42.4249 2.97854 42.2927 2.83638C42.1588 2.69236 41.9445 2.53681 41.639 2.37787C41.0288 2.06036 40.1228 1.76394 38.9737 1.51107C36.6814 1.0066 33.4975 0.691576 29.969 0.691576C26.4404 0.691576 23.2566 1.0066 20.9642 1.51107C19.8152 1.76394 18.9092 2.06036 18.299 2.37787C17.9935 2.53681 17.7792 2.69236 17.6453 2.83638Z" fill="black"/>
<path d="M29.8043 1.77044L23.055 3.42961C22.695 3.51812 22.4674 3.86914 22.5365 4.22953L24.2537 13.1869C24.2857 13.3535 24.3784 13.5027 24.5143 13.6061L29.544 17.4351C29.7966 17.6274 30.1489 17.6265 30.4005 17.4329L35.3753 13.6045C35.5085 13.502 35.5998 13.3553 35.6322 13.1915L37.4051 4.2326C37.4766 3.87107 37.249 3.51756 36.8874 3.42867L30.1419 1.77044C30.0311 1.74319 29.9151 1.74319 29.8043 1.77044Z" fill="black"/>
<path d="M29.9732 3.03125L23.7383 4.56398L25.297 12.8989L29.9732 16.4588L34.5992 12.8989L36.2082 4.56398L29.9732 3.03125Z" fill="white"/>
<ellipse cx="29.9686" cy="8.81736" rx="1.93512" ry="1.90183" fill="black"/>
<path d="M74.1765 15.7413C73.7165 16.2827 73.146 16.5067 72.3364 16.5067H68.6009V5.4H72.3364C73.146 5.4 73.7165 5.624 74.1765 6.16533L75.6302 7.71467C76.0902 8.21867 76.2006 8.79733 76.2006 9.69333V12.2133C76.2006 13.1093 76.0902 13.688 75.6302 14.192L74.1765 15.7413ZM77.0839 14.7893C77.6543 14.136 77.82 13.464 77.82 12.3253V9.58133C77.82 8.44267 77.6727 7.77067 77.0839 7.11733L75.2254 5.04533C74.6549 4.336 73.8453 4.03733 72.8148 4.03733H67V17.888H72.8148C73.8453 17.888 74.6549 17.5707 75.2254 16.8613L77.0839 14.7893Z" fill="black"/>
<path d="M87.0489 12.4H81.6021V11.9893C81.6021 11.4293 81.6941 11.0373 81.9702 10.72L82.7246 9.88C83.0374 9.544 83.3687 9.376 83.9575 9.376H84.7119C85.3008 9.376 85.6688 9.488 85.9816 9.88L86.6993 10.72C86.9569 11.056 87.0489 11.4293 87.0489 11.9893V12.4ZM88.1898 16.208V15.2187H87.2329L86.4601 16.0587C86.0368 16.5253 85.6136 16.6747 84.7119 16.6747H83.9943C83.3871 16.6747 83.0742 16.5627 82.7614 16.208L81.9886 15.3493C81.7125 15.0507 81.6021 14.64 81.6021 14.024V13.6693H88.5394V11.9893C88.5394 11.1867 88.4474 10.664 88.061 10.216L86.7545 8.816C86.2945 8.312 85.7424 8.10667 84.988 8.10667H83.6815C82.9454 8.10667 82.4118 8.312 81.915 8.816L80.6085 10.216C80.2404 10.6453 80.1116 11.2053 80.1116 11.9893V14.08C80.1116 14.8827 80.2404 15.4427 80.6085 15.872L81.8966 17.272C82.3934 17.776 82.927 17.9813 83.6631 17.9813H85.2456C86.2577 17.9813 86.8649 17.664 87.4169 17.048L88.1898 16.208Z" fill="black"/>
<path d="M98.867 17.888V8.2H97.3581V13.9867C97.3581 14.5653 97.2293 15.0693 96.9348 15.368L96.1068 16.208C95.7756 16.544 95.4627 16.6373 94.8555 16.6373H94.2299C93.641 16.6373 93.3282 16.5253 93.0338 16.1707L92.629 15.6667C92.3529 15.312 92.2793 14.8453 92.2793 14.248V8.2H90.752V14.304C90.752 15.1627 90.8624 15.6853 91.2121 16.096L92.2241 17.2907C92.6474 17.776 93.2914 18 94.0274 18H94.9107C95.6652 18 96.1068 17.7387 96.6036 17.2347L97.3765 16.432V17.888H98.867Z" fill="black"/>
<path d="M108.678 16.8053C109.083 16.488 109.304 16.096 109.304 15.48V14.752C109.304 14.136 109.175 13.6693 108.752 13.3893L107.648 12.6613C107.188 12.3627 106.635 12.3813 105.955 12.3813H104.703C104.243 12.3813 103.986 12.344 103.691 12.176L103.084 11.8213C102.826 11.672 102.753 11.448 102.753 11.1307V10.664C102.753 10.328 102.845 10.1227 103.084 9.95467L103.691 9.544C103.967 9.35733 104.243 9.33867 104.611 9.33867H105.936C106.525 9.33867 106.985 9.52533 107.372 9.936L108.255 10.8507H109.248V9.84267L108.457 8.984C107.905 8.368 107.243 8.088 106.231 8.088H104.611C103.857 8.088 103.268 8.21867 102.826 8.55467L101.888 9.24533C101.483 9.544 101.262 9.97333 101.262 10.5893V11.336C101.262 11.896 101.41 12.4187 101.814 12.68L102.937 13.408C103.397 13.7067 103.931 13.688 104.63 13.688H105.881C106.323 13.688 106.58 13.7253 106.875 13.8933L107.482 14.248C107.74 14.3973 107.813 14.6027 107.813 14.9387V15.4053C107.813 15.7413 107.721 15.9467 107.482 16.1147L106.875 16.5253C106.599 16.712 106.341 16.712 105.973 16.712H104.648C104.059 16.712 103.581 16.5253 103.213 16.1333L102.33 15.2187H101.318V16.2453L102.109 17.0667C102.698 17.664 103.323 17.9813 104.354 17.9813H105.973C106.727 17.9813 107.298 17.8693 107.758 17.5147L108.678 16.8053Z" fill="black"/>
<path d="M120.908 16.3013C121.35 15.9653 121.589 15.4987 121.589 14.8267V13.1093C121.589 12.4747 121.423 11.9147 120.982 11.6347L119.307 10.5893C118.792 10.272 118.24 10.272 117.486 10.272H115.682C115.185 10.272 114.909 10.2347 114.578 10.048L113.456 9.376C113.18 9.208 113.088 8.928 113.088 8.57333V7.17333C113.088 6.8 113.18 6.576 113.456 6.408L114.615 5.58667C114.928 5.38133 115.222 5.36267 115.627 5.36267H117.449C118.093 5.36267 118.571 5.58667 119.031 6.016L120.338 7.248H121.423V6.14667L120.209 4.97067C119.547 4.35467 118.866 4 117.762 4H115.627C114.799 4 114.137 4.14933 113.658 4.504L112.186 5.624C111.744 5.96 111.505 6.42667 111.505 7.09867V8.85333C111.505 9.488 111.671 10.048 112.112 10.328L113.787 11.3733C114.302 11.6907 114.854 11.6907 115.609 11.6907H117.412C117.909 11.6907 118.185 11.728 118.516 11.9147L119.639 12.5867C119.915 12.7547 120.007 12.9787 120.007 13.3333V14.752C120.007 15.1253 119.896 15.3307 119.639 15.5173L118.479 16.3387C118.166 16.5627 117.872 16.5627 117.467 16.5627H115.572C114.928 16.5627 114.357 16.3387 113.897 15.9093L112.591 14.6587H111.505V15.76L112.72 16.9547C113.382 17.5707 114.155 17.9253 115.259 17.9253H117.467C118.295 17.9253 118.958 17.776 119.436 17.4213L120.908 16.3013Z" fill="black"/>
<path d="M130.734 12.4H125.287V11.9893C125.287 11.4293 125.379 11.0373 125.655 10.72L126.41 9.88C126.722 9.544 127.054 9.376 127.643 9.376H128.397C128.986 9.376 129.354 9.488 129.667 9.88L130.384 10.72C130.642 11.056 130.734 11.4293 130.734 11.9893V12.4ZM131.875 16.208V15.2187H130.918L130.145 16.0587C129.722 16.5253 129.299 16.6747 128.397 16.6747H127.679C127.072 16.6747 126.759 16.5627 126.446 16.208L125.674 15.3493C125.398 15.0507 125.287 14.64 125.287 14.024V13.6693H132.224V11.9893C132.224 11.1867 132.132 10.664 131.746 10.216L130.44 8.816C129.98 8.312 129.427 8.10667 128.673 8.10667H127.367C126.63 8.10667 126.097 8.312 125.6 8.816L124.294 10.216C123.925 10.6453 123.797 11.2053 123.797 11.9893V14.08C123.797 14.8827 123.925 15.4427 124.294 15.872L125.582 17.272C126.078 17.776 126.612 17.9813 127.348 17.9813H128.931C129.943 17.9813 130.55 17.664 131.102 17.048L131.875 16.208Z" fill="black"/>
<path d="M142 16.2453V15.2187H140.97L140.197 16.0587C139.847 16.3947 139.479 16.6373 138.853 16.6373H138.191C137.602 16.6373 137.216 16.544 136.94 16.1707L136.259 15.3307C136.001 14.976 135.891 14.528 135.891 13.968V12.12C135.891 11.5413 136.001 11.112 136.259 10.7573L136.94 9.91733C137.216 9.544 137.602 9.432 138.191 9.432H138.853C139.497 9.432 139.829 9.656 140.197 10.0107L140.97 10.8507H142V9.824L141.246 8.984C140.657 8.38667 140.068 8.10667 139.056 8.10667H137.786C137.032 8.10667 136.443 8.33067 136.02 8.816L134.86 10.16C134.474 10.6267 134.345 11.1493 134.345 11.9893V14.08C134.345 14.92 134.492 15.4613 134.86 15.928L136.001 17.272C136.424 17.7573 137.032 17.9813 137.786 17.9813H139.056C140.068 17.9813 140.657 17.7013 141.246 17.0667L142 16.2453Z" fill="black"/>
</svg>
