<svg width="48" height="48" viewBox="0 0 48 48" fill="none" xmlns="http://www.w3.org/2000/svg">
<path d="M47.2814 29.8081C44.0778 42.6643 31.0527 50.489 18.1927 47.2806C5.33263 44.0722 -2.48847 31.0535 0.720179 18.1961C3.92883 5.33875 16.9475 -2.48954 29.8047 0.719347C42.6618 3.92823 50.4901 16.9476 47.2814 29.8081Z" fill="white"/>
<path d="M46.7963 29.6871L46.7963 29.6872C43.6595 42.2753 30.9058 49.9371 18.3137 46.7955C5.72151 43.6539 -1.93646 30.9066 1.2053 18.3172C4.34716 5.72743 17.0947 -1.93747 29.6836 1.20447C42.2731 4.34655 49.9381 17.0947 46.7963 29.6871Z" stroke="black" stroke-opacity="0.2"/>
<path d="M23.9978 7L23.8013 7.72918V28.8884L23.9978 29.1025L32.9952 23.2968L23.9978 7Z" fill="#343434"/>
<path d="M23.9979 7L15.0005 23.2968L23.9979 29.1025V18.8325V7Z" fill="#8C8C8C"/>
<path d="M23.9977 30.9622L23.887 31.1096V38.6469L23.9977 39L33.0005 25.1595L23.9977 30.9622Z" fill="#3C3C3B"/>
<path d="M23.9979 39V30.9621L15.0005 25.1593L23.9979 39Z" fill="#8C8C8C"/>
<path d="M23.9978 29.1025L32.995 23.2969L23.9978 18.8326V29.1025Z" fill="#141414"/>
<path d="M15.0005 23.2968L23.9977 29.1024V18.8325L15.0005 23.2968Z" fill="#393939"/>
</svg>
