<svg width="16" height="16" viewBox="0 0 16 16" fill="none" xmlns="http://www.w3.org/2000/svg">
<path d="M10.7284 2.13641C10.7144 2.15176 9.31284 3.65819 7.33321 3.65819C4.47205 3.65819 2 3.65819 2 6.76073C2 8.69014 2.95639 9.41891 4.36715 9.69483C4.36715 9.69483 5.7167 12.98 5.79996 13.1621C6.11664 13.8546 6.64468 14 7.03178 14C7.77193 14 8.29591 13.2915 8.09865 12.5121C8.07503 12.4201 7.46689 9.86973 7.46689 9.86973C9.36326 9.936 10.7136 11.3693 10.728 11.3855C10.978 11.6569 11.4286 11.5007 11.4286 11.1517V2.36964C11.4286 2.03796 10.9825 1.8595 10.7284 2.13641Z" stroke="black"/>
<path d="M13 5V9C14 8.674 15 7.90269 15 7C15 6.09695 14 5.326 13 5Z" fill="black"/>
</svg>
