<svg width="490" height="594" viewBox="0 0 490 594" fill="none" xmlns="http://www.w3.org/2000/svg">
<path d="M117.399 283.369V186.523C117.399 180.39 113.913 174.787 108.398 172.036L24.6665 130.282C13.8161 124.872 1.00012 132.691 1.00012 144.769V557.372C1.00012 572.538 20.0829 579.38 29.8632 567.773L484.139 28.638C494.074 16.8473 483.453 -0.720199 468.332 2.35431L348.329 26.754C344.643 27.5033 341.33 29.4929 338.95 32.3881L129.235 287.541C125.263 292.374 117.399 289.567 117.399 283.369ZM432.253 565.624L277.526 373.85C271.002 365.763 258.615 365.742 252.062 373.806L204.25 432.647C199.54 438.444 199.414 446.681 203.947 452.617L284.006 557.47C286.316 560.496 289.622 562.62 293.347 563.474L415.827 591.555C430.895 595.009 441.952 577.646 432.253 565.624Z" stroke="url(#paint0_linear)" stroke-width="2"/>
<defs>
<linearGradient id="paint0_linear" x1="472.5" y1="10" x2="-31.9998" y2="633" gradientUnits="userSpaceOnUse">
<stop offset="0.265411"/>
<stop offset="1" stop-color="white" stop-opacity="0"/>
</linearGradient>
</defs>
</svg>
