<svg width="24" height="24" viewBox="0 0 24 24" fill="none" xmlns="http://www.w3.org/2000/svg">
<g clip-path="url(#clip0_5082_1760)">
<path d="M8.40824 9.54889H5.18561V18.9998H8.40824V9.54889Z" fill="black"/>
<path d="M18.9843 10.4123C18.3074 9.69065 17.412 9.32976 16.2988 9.32976C15.8887 9.32976 15.5159 9.37903 15.1805 9.47764C14.8453 9.57618 14.5621 9.71444 14.3309 9.89248C14.0999 10.0705 13.9159 10.2358 13.7793 10.3883C13.6494 10.5332 13.5223 10.7019 13.3984 10.8928V9.54896H10.1853L10.1952 10.0068C10.2018 10.3121 10.205 11.253 10.205 12.8296C10.205 14.4065 10.1985 16.4632 10.1855 19H13.3984V13.726C13.3984 13.4018 13.434 13.1444 13.5057 12.9535C13.6425 12.6291 13.849 12.3575 14.1259 12.1382C14.4027 11.9187 14.746 11.809 15.1563 11.809C15.716 11.809 16.128 11.9982 16.3917 12.3765C16.6553 12.7547 16.7871 13.2777 16.7871 13.9453V18.9997H20V13.5831C19.9998 12.1906 19.6615 11.1337 18.9843 10.4123Z" fill="black"/>
<path d="M6.81637 5C6.27607 5 5.83829 5.15429 5.50291 5.46257C5.16757 5.77092 5 6.1602 5 6.63079C5 7.0948 5.16275 7.48275 5.48827 7.7942C5.8137 8.10569 6.24344 8.26151 6.77728 8.26151H6.79681C7.34374 8.26151 7.78488 8.10582 8.12012 7.7942C8.45536 7.48275 8.61971 7.09493 8.61325 6.63079C8.60675 6.16024 8.44061 5.77092 8.11519 5.46257C7.7898 5.15416 7.3567 5 6.81637 5Z" fill="black"/>
</g>
<defs>
<clipPath id="clip0_5082_1760">
<rect width="24" height="24" fill="white"/>
</clipPath>
</defs>
</svg>
