<svg width="32" height="32" viewBox="0 0 32 32" fill="none" xmlns="http://www.w3.org/2000/svg">
<path d="M31.5206 19.8721C29.3849 28.4429 20.7015 33.6593 12.1281 31.5204C3.55476 29.3815 -1.6593 20.7024 0.479794 12.1308C2.61889 3.55917 11.298 -1.65969 19.8694 0.479565C28.4409 2.61882 33.6597 11.2984 31.5206 19.8721Z" fill="white"/>
<path d="M31.0355 19.7511L31.0355 19.7512C28.9665 28.0539 20.5546 33.1074 12.2491 31.0353C3.94364 28.9632 -1.10729 20.5554 0.964916 12.2518C3.03723 3.94784 11.4452 -1.10763 19.7484 0.964684C28.0521 3.03714 33.1077 11.4455 31.0355 19.7511Z" stroke="black" stroke-opacity="0.2"/>
<path d="M21.6484 12.3719C21.2707 12.1503 20.785 12.1503 20.3534 12.3719L17.3316 14.1998L15.2811 15.363L12.3133 17.1909C11.9356 17.4124 11.45 17.4124 11.0183 17.1909L8.698 15.7507C8.32028 15.5291 8.05048 15.086 8.05048 14.5875V11.818C8.05048 11.3748 8.26632 10.9317 8.698 10.6548L11.0183 9.26999C11.396 9.04843 11.8816 9.04843 12.3133 9.26999L14.6336 10.7101C15.0113 10.9317 15.2811 11.3748 15.2811 11.8734V13.7012L17.3316 12.4826V10.5994C17.3316 10.1562 17.1158 9.71311 16.6841 9.43616L12.3673 6.8328C11.9896 6.61124 11.5039 6.61124 11.0722 6.8328L6.64752 9.49155C6.21584 9.71311 6 10.1562 6 10.5994V15.8061C6 16.2492 6.21584 16.6923 6.64752 16.9693L11.0183 19.5727C11.396 19.7942 11.8816 19.7942 12.3133 19.5727L15.2811 17.8002L17.3316 16.5816L20.2994 14.8091C20.6771 14.5875 21.1628 14.5875 21.5944 14.8091L23.9147 16.1938C24.2924 16.4154 24.5622 16.8585 24.5622 17.357V20.1266C24.5622 20.5697 24.3464 21.0128 23.9147 21.2898L21.6484 22.6745C21.2707 22.8961 20.785 22.8961 20.3534 22.6745L18.0331 21.2898C17.6554 21.0682 17.3856 20.6251 17.3856 20.1266V18.3541L15.3351 19.5727V21.4006C15.3351 21.8437 15.5509 22.2868 15.9826 22.5638L20.3534 25.1671C20.7311 25.3887 21.2167 25.3887 21.6484 25.1671L26.0191 22.5638C26.3969 22.3422 26.6667 21.8991 26.6667 21.4006V16.1384C26.6667 15.6953 26.4508 15.2522 26.0191 14.9752L21.6484 12.3719Z" fill="#8247E5"/>
</svg>
