<svg width="32" height="32" viewBox="0 0 32 32" fill="none" xmlns="http://www.w3.org/2000/svg">
<path d="M31.5205 19.872C29.3848 28.4428 20.7014 33.6592 12.1281 31.5203C3.55474 29.3813 -1.6593 20.7023 0.479792 12.1307C2.61888 3.55915 11.298 -1.65969 19.8694 0.479563C28.4407 2.61881 33.6596 11.2984 31.5205 19.872Z" fill="white"/>
<path d="M31.0354 19.751L31.0353 19.7511C28.9664 28.0537 20.5545 33.1072 12.2491 31.0351C3.94362 28.963 -1.10729 20.5553 0.964914 12.2518C3.03722 3.94783 11.4451 -1.10762 19.7483 0.964682C28.052 3.03713 33.1076 11.4455 31.0354 19.751Z" stroke="black" stroke-opacity="0.2"/>
<path d="M9.25026 20.1959C9.37261 20.0704 9.53856 20 9.71156 20H25.673C25.9637 20 26.1093 20.3606 25.9036 20.5714L22.7496 23.8041C22.6273 23.9295 22.4613 24 22.2884 24H6.32694C6.03617 24 5.89064 23.6393 6.09632 23.4285L9.25026 20.1959Z" fill="url(#paint0_linear_6256_5065)"/>
<path d="M9.25026 8.19588C9.37261 8.07045 9.53856 8 9.71156 8H25.673C25.9637 8 26.1093 8.36066 25.9036 8.57149L22.7496 11.8041C22.6273 11.9295 22.4613 12 22.2884 12H6.32694C6.03617 12 5.89064 11.6394 6.09632 11.4285L9.25026 8.19588Z" fill="url(#paint1_linear_6256_5065)"/>
<path d="M22.7496 14.1959C22.6273 14.0705 22.4613 14 22.2884 14H6.32694C6.03617 14 5.89064 14.3607 6.09632 14.5714L9.25026 17.8041C9.37261 17.9295 9.53856 18 9.71156 18H25.673C25.9637 18 26.1093 17.6393 25.9036 17.4285L22.7496 14.1959Z" fill="url(#paint2_linear_6256_5065)"/>
<defs>
<linearGradient id="paint0_linear_6256_5065" x1="19.5211" y1="3.51312" x2="8.02643" y2="24.9771" gradientUnits="userSpaceOnUse">
<stop stop-color="#00FFA3"/>
<stop offset="1" stop-color="#DC1FFF"/>
</linearGradient>
<linearGradient id="paint1_linear_6256_5065" x1="19.5211" y1="3.59001" x2="8.02639" y2="25.054" gradientUnits="userSpaceOnUse">
<stop stop-color="#00FFA3"/>
<stop offset="1" stop-color="#DC1FFF"/>
</linearGradient>
<linearGradient id="paint2_linear_6256_5065" x1="19.5211" y1="3.59004" x2="8.02643" y2="25.054" gradientUnits="userSpaceOnUse">
<stop stop-color="#00FFA3"/>
<stop offset="1" stop-color="#DC1FFF"/>
</linearGradient>
</defs>
</svg>
