<svg width="16" height="16" viewBox="0 0 16 16" fill="none" xmlns="http://www.w3.org/2000/svg">
<path fill-rule="evenodd" clip-rule="evenodd" d="M11.724 13.8675C11.9118 14.0043 12.1539 14.0385 12.3697 13.9545C12.5856 13.8699 12.7442 13.6803 12.792 13.4505C13.299 11.0001 14.5286 4.79789 14.99 2.56889C15.025 2.40089 14.9667 2.22629 14.8383 2.11409C14.71 2.00189 14.5321 1.96949 14.3734 2.03009C11.9276 2.96129 4.39515 5.86829 1.31639 7.04009C1.12098 7.11449 0.993816 7.30769 1.00023 7.5195C1.00723 7.7319 1.14606 7.9161 1.34614 7.9779C2.72686 8.4027 4.53923 8.9937 4.53923 8.9937C4.53923 8.9937 5.38622 11.6247 5.82779 12.9627C5.8832 13.1307 6.01095 13.2627 6.17953 13.3083C6.34753 13.3533 6.52719 13.3059 6.6526 13.1841C7.36192 12.4953 8.45856 11.4303 8.45856 11.4303C8.45856 11.4303 10.5422 13.0017 11.724 13.8675V13.8675ZM5.30163 8.6613L6.28103 11.9841L6.49861 9.8799C6.49861 9.8799 10.2826 6.36929 12.4397 4.36829C12.5027 4.30949 12.5115 4.21109 12.459 4.14209C12.4071 4.07309 12.3114 4.05689 12.2396 4.10369C9.73953 5.74589 5.30163 8.6613 5.30163 8.6613Z" fill="black"/>
</svg>
