<svg width="16" height="16" viewBox="0 0 16 16" fill="none" xmlns="http://www.w3.org/2000/svg">
<path d="M15 3.41944C14.4851 3.66118 13.9311 3.8237 13.3499 3.89739C13.9437 3.52189 14.3989 2.92864 14.6133 2.2202C14.0579 2.56844 13.4435 2.82065 12.7886 2.95591C12.2648 2.3675 11.5186 2 10.6921 2C9.10687 2 7.82069 3.35542 7.82069 5.02856C7.82069 5.26635 7.84577 5.49772 7.89505 5.7195C5.50831 5.59304 3.39119 4.38651 1.97538 2.55402C1.72785 3.00155 1.58641 3.52109 1.58641 4.0767C1.58641 5.12705 2.09319 6.05569 2.86377 6.59776C2.39234 6.58175 1.95029 6.44641 1.56213 6.2183V6.25673C1.56213 7.72497 2.55216 8.94909 3.86634 9.22768C3.62544 9.29654 3.37201 9.33418 3.10976 9.33418C2.92486 9.33418 2.74515 9.3158 2.5698 9.27974C2.93514 10.4838 3.99597 11.3596 5.25342 11.3837C4.27003 12.1971 3.03167 12.6806 1.68586 12.6806C1.45378 12.6806 1.22544 12.6662 1 12.6383C2.27218 13.498 3.78089 14 5.40369 14C10.6869 14 13.5761 9.38228 13.5761 5.37935L13.568 4.98705C14.1278 4.56107 14.6148 4.02789 15 3.41944Z" fill="black"/>
</svg>
