<svg width="18" height="16" viewBox="0 0 18 16" fill="none" xmlns="http://www.w3.org/2000/svg">
<path d="M16.9656 4.51433C16.87 4.17038 16.6835 3.85681 16.4247 3.60486C16.1659 3.3529 15.8438 3.17134 15.4905 3.07827C14.1972 2.73486 8.99165 2.73486 8.99165 2.73486C8.99165 2.73486 3.78613 2.74527 2.49277 3.08868C2.13947 3.18175 1.81739 3.3633 1.55858 3.61526C1.29978 3.86722 1.11329 4.18079 1.01769 4.52474C0.626478 6.76209 0.474695 10.1712 1.02838 12.319C1.12398 12.663 1.31047 12.9766 1.56927 13.2285C1.82808 13.4805 2.15016 13.662 2.50346 13.7551C3.79682 14.0985 9.00234 14.0985 9.00234 14.0985C9.00234 14.0985 14.2079 14.0985 15.5012 13.7551C15.8545 13.662 16.1766 13.4805 16.4354 13.2285C16.6942 12.9766 16.8807 12.663 16.9763 12.319C17.3889 10.0786 17.5161 6.67155 16.9656 4.51433Z" fill="black"/>
<path d="M7.1062 10.6895L11.6517 8.41677L7.1062 6.14404V10.6895Z" fill="white"/>
</svg>
